<svg width="88" height="88" viewBox="0 0 88 88" fill="none" xmlns="http://www.w3.org/2000/svg">
<g filter="url(#filter0_d_1_15)">
<rect x="12" y="8" width="64" height="64" rx="16" fill="#06B25F"/>
</g>
<path d="M34.56 32L34.5616 47.3465C34.5616 48.7456 35.7031 49.875 37.1151 49.875H37.84V55.6308C37.84 56.9373 38.9995 58 40.3164 58C41.6382 58 42.76 56.9373 42.76 55.6291V49.875H46.04V55.6308C46.04 56.9373 47.1995 58 48.518 58C49.8399 58 50.96 56.9373 50.96 55.6291V49.875L51.6882 49.8734C53.0953 49.8734 54.24 48.7424 54.24 47.3432V32H34.56ZM60.8 34.3904C60.8 33.0822 59.6602 32 58.34 32C57.0198 31.9984 55.88 33.0839 55.88 34.392V44.3143C55.88 45.624 57.0182 46.625 58.34 46.625C59.6602 46.625 60.8 45.6256 60.8 44.3143V34.3904ZM32.92 34.3904C32.92 33.0822 31.7802 32 30.46 32C29.1398 31.9984 28 33.0839 28 34.392V44.3143C28 45.624 29.1382 46.625 30.46 46.625C31.7802 46.625 32.92 45.6256 32.92 44.3143V34.3904ZM49.2396 22.5084L50.7812 19.4875C50.8928 19.273 50.7501 19 50.5139 19C50.4057 19 50.3007 19.0617 50.245 19.1706L48.6886 22.2224C46.1778 21.0248 42.8764 20.9029 40.113 22.2224L38.555 19.1706C38.5009 19.0617 38.396 19 38.2861 19C38.0499 19 37.9072 19.273 38.0188 19.4875L39.5604 22.5084C36.5346 24.1886 34.56 26.7074 34.56 30.3734H54.24C54.24 26.7074 52.2654 24.1886 49.2396 22.5084ZM40.3016 27.125C39.849 27.125 39.48 26.761 39.48 26.3125C39.48 25.8673 39.849 25.5 40.3016 25.5C40.7543 25.5 41.12 25.8673 41.12 26.3125C41.12 26.761 40.7543 27.125 40.3016 27.125ZM48.4984 27.125C48.0457 27.125 47.68 26.761 47.68 26.3125C47.68 25.8673 48.0457 25.5 48.4984 25.5C48.951 25.5 49.32 25.8673 49.32 26.3125C49.32 26.761 48.951 27.125 48.4984 27.125Z" fill="white"/>
<defs>
<filter id="filter0_d_1_15" x="0" y="0" width="88" height="88" filterUnits="userSpaceOnUse" color-interpolation-filters="sRGB">
<feFlood flood-opacity="0" result="BackgroundImageFix"/>
<feColorMatrix in="SourceAlpha" type="matrix" values="0 0 0 0 0 0 0 0 0 0 0 0 0 0 0 0 0 0 127 0" result="hardAlpha"/>
<feOffset dy="4"/>
<feGaussianBlur stdDeviation="6"/>
<feColorMatrix type="matrix" values="0 0 0 0 0.161778 0 0 0 0 0.0938889 0 0 0 0 0.433333 0 0 0 0.2 0"/>
<feBlend mode="normal" in2="BackgroundImageFix" result="effect1_dropShadow_1_15"/>
<feBlend mode="normal" in="SourceGraphic" in2="effect1_dropShadow_1_15" result="shape"/>
</filter>
</defs>
</svg>
