<svg width="1800" height="635" viewBox="0 0 1800 635" fill="none" xmlns="http://www.w3.org/2000/svg">
<mask id="mask0_1_19" style="mask-type:alpha" maskUnits="userSpaceOnUse" x="0" y="0" width="1800" height="635">
<rect width="1800" height="635" fill="#C4C4C4"/>
</mask>
<g mask="url(#mask0_1_19)">
<path d="M278.229 71.9751C90.8522 51.8805 -187.9 -26 -187.9 -26L-218.25 615.365C-218.25 615.365 269.135 512.505 591.725 512.654C834.534 512.767 990.345 528.28 1231.96 548.874C1511.56 572.705 1926.51 624.377 1926.51 624.377L1948.28 164.389C1948.28 164.389 1489.01 69.637 1178.17 46.4251C823.93 19.9721 630.691 109.774 278.229 71.9751Z" fill="#276ED8" fill-opacity="0.1"/>
<path d="M393.75 114.726C235.332 103.72 -2.24982 47 -2.24982 47V587.231C-2.24982 587.231 403.636 485.421 675 475.405C879.252 467.866 1010.94 476.011 1215 485.731C1451.14 496.979 1802.25 527.38 1802.25 527.38V139.926C1802.25 139.926 1412.15 74.6947 1149.75 64.9498C850.716 53.8442 691.741 135.427 393.75 114.726Z" fill="#276ED8"/>
</g>
</svg>
