<svg width="1702" height="1218" viewBox="0 0 1702 1218" fill="none" xmlns="http://www.w3.org/2000/svg">
<path d="M387.691 87.6604C254.69 102.076 87.6975 164.598 87.6975 164.598L128 1167.16C128 1167.16 255.036 1207.99 361.402 1204.99C537.486 1200.01 659.927 1127.69 836.082 1120.29C1031.7 1112.06 1127.99 1152.47 1323.62 1144.47C1441.29 1139.65 1621.76 1116.3 1621.76 1116.3L1567.97 -0.0063013C1567.97 -0.0063013 1513.17 18.9435 1471.93 26.8486C1378.15 44.8265 1313.98 25.8257 1213.13 32.7767C1031.45 45.2983 949.403 93.3131 767.218 102.155C615.944 109.496 536.531 71.5275 387.691 87.6604Z" fill="#194484" fill-opacity="0.07"/>
<path d="M568.063 69.5405C458.164 75.2241 315.879 118.653 315.879 118.653L315.879 1156.18C315.879 1156.18 415.566 1195.37 502.632 1197.79C646.766 1201.79 753.653 1148.32 898.081 1150.34C1058.47 1152.58 1192.08 1168.08 1352.44 1170.5C1448.91 1171.96 1539.44 1183.08 1539.44 1183.08L1539.44 52.0002C1539.44 52.0002 1492.9 64.9716 1458.49 69.5405C1380.24 79.9311 1329.73 61.4669 1246.78 62.5244C1097.35 64.4295 1025.77 99.899 876.287 98.7743C752.164 97.8404 691.05 63.1801 568.063 69.5405Z" fill="#194484"/>
</svg>
