<svg width="451" height="438" viewBox="0 0 451 438" fill="none" xmlns="http://www.w3.org/2000/svg">
<path opacity="0.04" d="M243.111 354.206C205.54 358.425 140.815 348.79 87.4254 310.663C34.0362 272.536 80.9519 196.863 117.925 197.163C129.414 197.287 73.0208 179.522 106.747 166.076C147.701 149.748 131.2 93.0026 181.62 79.6218C232.04 66.241 249.64 88.5875 271.265 94.3193C312.027 105.325 307.267 69.5201 355.417 105.505C386.147 128.471 406.652 178.17 383.27 234.552C359.888 290.934 333.477 344.059 243.111 354.206Z" fill="#276ED8"/>
<path d="M113.89 318C102.903 318 94 326.904 94 337.89C94 348.876 102.903 357.78 113.89 357.78C124.876 357.78 133.779 348.876 133.779 337.89C133.779 326.904 124.876 318 113.89 318ZM113.89 352.824C105.633 352.824 98.9462 346.137 98.9462 337.881C98.9462 329.624 105.633 322.937 113.89 322.937C122.146 322.937 128.833 329.624 128.833 337.881C128.833 346.137 122.146 352.824 113.89 352.824Z" fill="#66D6A0"/>
<path d="M277.047 300.979H249.262C248.168 300.979 247.274 300.094 247.274 298.991C247.274 297.897 248.159 297.003 249.262 297.003H277.047C278.141 297.003 279.035 297.888 279.035 298.991C279.035 300.085 278.141 300.979 277.047 300.979Z" fill="#66D6A0"/>
<path d="M277.047 310.9H249.262C248.169 310.9 247.274 310.016 247.274 308.912C247.274 307.818 248.159 306.924 249.262 306.924H277.047C278.141 306.924 279.035 307.809 279.035 308.912C279.035 310.006 278.141 310.9 277.047 310.9Z" fill="#66D6A0"/>
<path opacity="0.2" d="M117.951 218.795L135 215.565V200.167L117.951 197.206C116.642 190.879 114.157 184.957 110.736 179.708L120.517 165.251L109.694 154.349L95.5582 164.417C90.3474 160.971 84.4952 158.495 78.1888 157.175L74.9821 140H59.6971L56.7577 157.175C50.478 158.495 44.5992 160.998 39.3884 164.444L25.0653 154.591L14.2429 165.494L24.2369 179.734C20.8165 184.984 18.358 190.906 17.0487 197.232L0 200.463V215.861L17.0487 218.822C18.358 225.175 20.8432 231.071 24.2637 236.32L14.4834 250.75L25.3058 261.652L39.4685 251.584C44.6793 255.03 50.5582 257.533 56.8379 258.826L60.0445 276H75.3295L78.269 258.826C84.5754 257.506 90.4275 255.003 95.6383 251.557L109.961 261.41L120.784 250.507L110.79 236.267C114.183 231.044 116.642 225.149 117.951 218.795ZM67.5 239.901C50.0237 239.901 35.861 225.606 35.861 208.027C35.861 190.449 50.0237 176.154 67.5 176.154C84.9762 176.154 99.1389 190.422 99.1389 208.027C99.1389 225.633 84.9762 239.901 67.5 239.901Z" fill="#84B5FF"/>
<path d="M221 99.1223V255.879C221 260.694 224.477 265 228.76 265H335.241C339.524 265 343 260.694 343 255.879V99.1223C343 94.3067 339.524 90.0005 335.241 90.0005H228.751C224.469 90.0099 221 94.3067 221 99.1223ZM335.35 260.128H282H228.651C227.063 260.128 225.779 258.683 225.779 256.898V98.1025C225.779 96.3179 227.063 94.8732 228.651 94.8732H335.35C336.937 94.8732 338.222 96.3179 338.222 98.1025V256.898C338.222 258.683 336.937 260.128 335.35 260.128Z" fill="#66D6A0"/>
<path d="M266.594 136.383C266.594 137.363 265.804 138.152 264.825 138.152C263.845 138.152 263.055 137.363 263.055 136.383C263.055 135.404 263.845 134.614 264.825 134.614C265.795 134.614 266.594 135.404 266.594 136.383Z" fill="#84B5FF"/>
<path d="M262.001 135.501C262.001 136.331 261.331 137.001 260.501 137.001C259.67 137.001 259.001 136.331 259.001 135.501C259.001 134.67 259.67 134.001 260.501 134.001C261.331 134.001 262.001 134.67 262.001 135.501Z" fill="#84B5FF"/>
<path d="M299 147.281V289.386C299 293.041 296.027 296 292.355 296H74.6455C70.974 296 68.0004 293.041 68.0004 289.386V147.281C68.0004 138.85 74.8709 132 83.3517 132H283.649C292.13 132 299 138.85 299 147.281Z" fill="white" stroke="#84B5FF" stroke-miterlimit="10"/>
<path d="M299 146.396V147H68.0004V146.396C68.0004 138.454 74.8709 132 83.3517 132H283.649C292.13 132 299 138.454 299 146.396Z" fill="#84B5FF"/>
<path d="M299.001 266V289.519C299.001 293.1 296.028 296 292.356 296H74.6464C70.975 296 68.0013 293.1 68.0013 289.519V266H299.001Z" fill="#EDF1FF"/>
<path d="M299 147.281V289.386C299 293.041 296.027 296 292.355 296H74.6455C70.974 296 68.0004 293.041 68.0004 289.386V147.281C68.0004 138.85 74.8709 132 83.3517 132H283.649C292.13 132 299 138.85 299 147.281Z" stroke="#84B5FF" stroke-miterlimit="10"/>
<g filter="url(#filter0_d_40_92)">
<rect x="201" y="208" width="110" height="110" rx="6" fill="#06B25F"/>
</g>
<path d="M246.593 294.7C236.964 294.644 229 274.99 229 264.98C229 248.629 241.266 245.049 245.993 245.049C248.123 245.049 250.398 245.886 252.405 246.626C253.808 247.143 255.259 247.676 256.066 247.676C256.549 247.676 257.687 247.222 258.692 246.824C260.836 245.971 263.503 244.911 266.608 244.911C266.614 244.911 266.621 244.911 266.627 244.911C268.946 244.911 275.978 245.42 280.205 251.768L281.195 253.256L279.77 254.332C277.734 255.868 274.019 258.67 274.019 264.221C274.019 270.796 278.227 273.324 280.248 274.54C281.14 275.077 282.064 275.63 282.064 276.841C282.064 277.631 275.756 294.602 266.595 294.602C264.354 294.602 262.77 293.928 261.372 293.334C259.958 292.732 258.738 292.214 256.723 292.214C255.701 292.214 254.409 292.697 253.041 293.21C251.172 293.908 249.056 294.7 246.656 294.7H246.593Z" fill="white"/>
<path d="M267.579 230.001C267.818 238.602 261.666 244.57 255.522 244.196C254.509 237.331 261.666 230.001 267.579 230.001Z" fill="white"/>
<g filter="url(#filter1_d_40_92)">
<rect x="75" y="154" width="65.6797" height="64.5473" rx="6" fill="#276ED8"/>
</g>
<path d="M97.3579 196.947L82.3232 188.816C81.3515 188.254 80.8657 187.384 80.8657 186.208C80.8657 184.981 81.3771 184.112 82.3999 183.6L97.3579 175.392V178.384C97.3579 178.589 97.2812 178.87 97.1278 179.228C96.9744 179.535 96.7443 179.765 96.4374 179.918L85.775 185.748C85.3659 186.055 85.3659 186.362 85.775 186.669L97.3579 192.882V196.947Z" fill="white"/>
<path d="M110.164 172.938H113.156L105.715 198.405C105.511 199.07 105.05 199.402 104.334 199.402H102.417L110.164 172.938Z" fill="white"/>
<path d="M117.985 175.392L132.943 183.6C134.017 184.163 134.554 185.032 134.554 186.208C134.554 187.384 134.017 188.228 132.943 188.74L117.985 196.947V193.956C117.985 193.802 118.036 193.547 118.138 193.189C118.291 192.831 118.522 192.575 118.828 192.422L129.567 186.669C129.977 186.362 129.977 186.055 129.567 185.748L117.985 179.458V175.392Z" fill="white"/>
<defs>
<filter id="filter0_d_40_92" x="195" y="202" width="132" height="132" filterUnits="userSpaceOnUse" color-interpolation-filters="sRGB">
<feFlood flood-opacity="0" result="BackgroundImageFix"/>
<feColorMatrix in="SourceAlpha" type="matrix" values="0 0 0 0 0 0 0 0 0 0 0 0 0 0 0 0 0 0 127 0" result="hardAlpha"/>
<feMorphology radius="3" operator="dilate" in="SourceAlpha" result="effect1_dropShadow_40_92"/>
<feOffset dx="5" dy="5"/>
<feGaussianBlur stdDeviation="4"/>
<feColorMatrix type="matrix" values="0 0 0 0 0 0 0 0 0 0 0 0 0 0 0 0 0 0 0.2 0"/>
<feBlend mode="normal" in2="BackgroundImageFix" result="effect1_dropShadow_40_92"/>
<feBlend mode="normal" in="SourceGraphic" in2="effect1_dropShadow_40_92" result="shape"/>
</filter>
<filter id="filter1_d_40_92" x="69" y="148" width="87.6797" height="86.5474" filterUnits="userSpaceOnUse" color-interpolation-filters="sRGB">
<feFlood flood-opacity="0" result="BackgroundImageFix"/>
<feColorMatrix in="SourceAlpha" type="matrix" values="0 0 0 0 0 0 0 0 0 0 0 0 0 0 0 0 0 0 127 0" result="hardAlpha"/>
<feMorphology radius="3" operator="dilate" in="SourceAlpha" result="effect1_dropShadow_40_92"/>
<feOffset dx="5" dy="5"/>
<feGaussianBlur stdDeviation="4"/>
<feColorMatrix type="matrix" values="0 0 0 0 0 0 0 0 0 0 0 0 0 0 0 0 0 0 0.2 0"/>
<feBlend mode="normal" in2="BackgroundImageFix" result="effect1_dropShadow_40_92"/>
<feBlend mode="normal" in="SourceGraphic" in2="effect1_dropShadow_40_92" result="shape"/>
</filter>
</defs>
</svg>
