<svg width="94" height="94" viewBox="0 0 94 94" fill="none" xmlns="http://www.w3.org/2000/svg">
<path d="M51.8878 45.0593C52.9707 44.5055 54.1771 44.2127 55.4287 44.2127C57.5029 44.2127 59.4529 45.0179 60.9229 46.4802L64.0874 43.3161C71.9183 46.0611 80.9755 44.3038 87.2358 38.0438C92.5033 32.7764 94.5806 25.529 93.4717 18.6976C93.3495 17.9453 92.8169 17.3248 92.0918 17.0907C91.3668 16.8563 90.5709 17.0468 90.0321 17.5858L85.3336 22.2844C81.5072 26.1107 75.3031 26.1107 71.4767 22.2844C67.6501 18.4581 67.6501 12.2539 71.4767 8.42759L76.1753 3.72902C76.7144 3.18996 76.9065 2.39404 76.6717 1.66866C76.4373 0.942968 75.8158 0.411605 75.0632 0.289427C68.2321 -0.819478 60.9845 1.25787 55.7173 6.52533C49.3641 12.8786 47.6542 22.1116 50.5762 30.0211L43.7131 36.8842L51.8878 45.0593Z" fill="#276ED8"/>
<path d="M39.3813 57.4958L31.2409 49.3554L2.77595 77.82C-0.925316 81.5213 -0.925316 87.5221 2.77595 91.2234C6.47721 94.9247 12.4781 94.9247 16.1793 91.2234L40.7179 66.6851C38.2429 64.197 37.7969 60.4406 39.3813 57.4958Z" fill="#276ED8"/>
<path d="M57.5369 49.896C56.9548 49.314 56.1916 49.0228 55.4287 49.0228C54.6658 49.0228 53.9026 49.314 53.3206 49.896L51.6213 51.5953L21.3519 21.3259L22.7667 19.9111C24.0559 18.6222 23.8958 16.4843 22.4265 15.4023L10.0765 6.30693C8.88971 5.43309 7.24271 5.55719 6.20051 6.59939L0.956783 11.8434C-0.0854205 12.8856 -0.209523 14.533 0.664324 15.7195L9.75939 28.0694C10.8414 29.5384 12.978 29.7001 14.2681 28.4097L15.683 26.9945L45.9524 57.2639L44.1335 59.0828C42.9691 60.2472 42.9691 62.1347 44.1335 63.2991L72.0578 91.2234C75.7591 94.9247 81.7599 94.9247 85.4612 91.2234C89.1624 87.5222 89.1624 81.5213 85.4612 77.82L57.5369 49.896Z" fill="#06B25F"/>
</svg>
