<svg width="112" height="105" viewBox="0 0 112 105" fill="none" xmlns="http://www.w3.org/2000/svg">
<path d="M96.9931 42.1245C95.4103 41.2401 93.4107 41.7913 92.5199 43.3613C91.6259 44.9378 92.1802 46.9405 93.7567 47.8345C101.149 52.0227 105.438 57.1751 105.438 62.3437C105.438 71.3256 93.0904 79.8138 75.037 83.4699C73.2586 83.832 72.1114 85.5623 72.4704 87.3377C72.8355 89.1303 74.5894 90.2643 76.3381 89.9043C97.8679 85.5433 112 74.7254 112 62.3437C112 54.7078 106.529 47.5269 96.9931 42.1245V42.1245Z" fill="#06B25F"/>
<path d="M39.5938 90.5876V101.719C39.5938 102.93 40.2603 104.042 41.3273 104.612C42.3795 105.177 43.6778 105.127 44.6952 104.449L64.3827 91.3239C65.296 90.7151 65.844 89.6896 65.844 88.5939C65.844 87.4982 65.296 86.4727 64.3827 85.8639L44.6952 72.7389C43.6859 72.0724 42.3881 72.0019 41.3273 72.5755C40.2603 73.1456 39.5938 74.2575 39.5938 75.4687V83.8728C20.4089 80.5861 6.5625 71.8567 6.5625 62.3437C6.5625 57.1751 10.8509 52.0224 18.2431 47.8344C19.8196 46.9404 20.3739 44.9378 19.4799 43.3612C18.5892 41.791 16.5928 41.24 15.0067 42.1244C5.47072 47.5269 0 54.7078 0 62.3437C0 75.7111 15.9324 86.8581 39.5938 90.5876V90.5876Z" fill="#06B25F"/>
<path d="M82.2498 12.7373L57.4674 0.346008C56.5445 -0.115336 55.4551 -0.115336 54.5322 0.346008L29.7487 12.738L55.9998 25.8623L82.2498 12.7373Z" fill="#276ED8"/>
<path d="M85.5312 49.2187V18.4347L59.2812 31.5597C59.2812 32.2335 59.2812 65.046 59.2812 64.3722L83.7176 52.1542C84.8295 51.5963 85.5312 50.4621 85.5312 49.2187V49.2187Z" fill="#276ED8"/>
<path d="M26.4688 49.2186C26.4688 50.462 27.1705 51.5962 28.2824 52.1538L52.7188 64.3721C52.7188 62.0687 52.7188 30.8854 52.7188 31.5596L26.4688 18.4357V49.2186Z" fill="#276ED8"/>
</svg>
