<svg width="112" height="112" viewBox="0 0 112 112" fill="none" xmlns="http://www.w3.org/2000/svg">
<g clip-path="url(#clip0_28_68)">
<path d="M42 -7.62939e-06C29.134 -7.62939e-06 18.6666 10.4673 18.6666 23.3333C18.6666 36.1993 29.134 46.6667 42 46.6667C54.866 46.6667 65.3333 36.1993 65.3333 23.3333C65.3333 10.4673 54.866 -7.62939e-06 42 -7.62939e-06Z" fill="#276ED8"/>
<path d="M77.3826 111.907C75.4973 111.473 74.3259 109.597 74.7553 107.711L81.7553 77.378C82.1939 75.4974 84.0746 74.3073 85.9506 74.7553C87.8359 75.1893 89.0073 77.0654 88.5779 78.9507L81.5779 109.284C81.1346 111.216 79.1979 112.35 77.3826 111.907Z" fill="#06B25F"/>
<path d="M96.8334 107.333C95.8767 107.333 94.9247 106.941 94.2294 106.176C92.9367 104.734 93.0534 102.527 94.4907 101.229L103.269 93.3334L94.4907 85.4374C93.0534 84.1447 92.9367 81.9327 94.2294 80.4907C95.5267 79.0534 97.7387 78.9414 99.1761 80.2294L110.843 90.7294C111.58 91.3967 112 92.3394 112 93.3334C112 94.3274 111.58 95.2701 110.843 95.9374L99.1761 106.437C98.5041 107.039 97.6687 107.333 96.8334 107.333Z" fill="#06B25F"/>
<path d="M66.5 107.333C65.6647 107.333 64.8294 107.039 64.1574 106.437L52.4907 95.9373C51.7534 95.27 51.3334 94.3273 51.3334 93.3333C51.3334 92.3393 51.7534 91.3967 52.4907 90.7293L64.1574 80.2293C65.5947 78.9413 67.8067 79.058 69.104 80.4907C70.3967 81.9327 70.2801 84.14 68.8427 85.4373L60.0647 93.3333L68.8427 101.229C70.2801 102.522 70.3967 104.734 69.104 106.176C68.4087 106.941 67.4567 107.333 66.5 107.333Z" fill="#06B25F"/>
<path d="M43.1667 93.3333C43.1667 89.712 44.7113 86.2353 47.3993 83.8087L59.08 73.2947C61.4507 71.1667 64.4933 70.0047 67.662 70.0047C70.2893 70.0047 72.828 70.8353 74.9607 72.3053C76.5473 69.202 79.31 66.906 82.6093 65.9027C78.6287 59.9387 71.8527 56 64.1667 56H22.1667C9.94467 56 0 65.9447 0 78.1667V96.8333C0 98.7653 1.568 100.333 3.5 100.333H45.304C43.9507 98.2613 43.1667 95.844 43.1667 93.3333V93.3333Z" fill="#276ED8"/>
</g>
<defs>
<clipPath id="clip0_28_68">
<rect width="112" height="112" fill="white"/>
</clipPath>
</defs>
</svg>
