<svg width="86" height="83" viewBox="0 0 86 83" fill="none" xmlns="http://www.w3.org/2000/svg">
<circle cx="43" cy="60" r="18" fill="#DFECFC"/>
<path d="M42.9998 47.4084C36.1498 47.4084 30.5767 52.9815 30.5767 59.8315C30.5767 66.6815 36.1498 72.2546 42.9998 72.2546C49.8498 72.2546 55.4229 66.6815 55.4229 59.8315C55.4229 52.9815 49.8498 47.4084 42.9998 47.4084ZM38.3806 67.6775V51.9855L51.3385 59.8315L38.3806 67.6775Z" fill="#06B25F"/>
<path d="M86 18.037C85.9961 15.1723 84.5362 10.958 77.6127 7.13084C72.8204 4.4814 66.2119 2.46184 58.5017 1.29065L55.6036 0.849731V31.5257C62.6222 30.7449 69.0391 29.3106 74.3268 27.3022C81.2234 24.6823 85.5079 21.2619 86 18.037Z" fill="#276ED8"/>
<path d="M42.9999 37.247C30.5302 37.247 18.7692 35.3882 9.88389 32.0131C5.77851 30.4534 2.46113 28.6196 0 26.5856V65.0936C0 70.3217 4.78776 75.0195 13.4814 78.3218C21.4061 81.3321 31.8891 82.9895 42.9999 82.9895C54.1108 82.9895 64.5944 81.3321 72.5184 78.3218C81.2121 75.0195 85.9998 70.3217 85.9998 65.0936V26.5856C83.5387 28.6196 80.2213 30.4534 76.1159 32.0131C67.2307 35.3882 55.4696 37.247 42.9999 37.247V37.247ZM42.9999 77.2943C33.3713 77.2943 25.5378 69.4602 25.5378 59.8315C25.5378 50.2022 33.3713 42.3687 42.9999 42.3687C52.6292 42.3687 60.4627 50.2022 60.4627 59.8315C60.4627 69.4602 52.6292 77.2943 42.9999 77.2943V77.2943Z" fill="#276ED8"/>
<path d="M11.6732 27.3022C16.9583 29.3093 23.3713 30.7436 30.3866 31.5244V0.847748L27.4885 1.28801C19.779 2.45854 13.1724 4.47876 8.38138 7.12952C1.46317 10.9574 0.00393677 15.1717 0 18.037C0.492752 21.2619 4.77661 24.6823 11.6732 27.3022Z" fill="#276ED8"/>
</svg>
