<svg width="88" height="87" viewBox="0 0 88 87" fill="none" xmlns="http://www.w3.org/2000/svg">
<g filter="url(#filter0_d_1_11)">
<rect x="12" y="8" width="64" height="63" rx="16" fill="#84B5FF"/>
</g>
<path d="M55.5934 21L41.103 25.2574L38.9583 29.4073L34.6065 29.3718L24 41.0025L34.6065 52.6314L38.9562 52.5957L41.1055 56.7428L55.5934 61L59.4747 45.1168L57.2694 41.0025L59.4747 36.8888L55.5934 21ZM39.3074 30.075L50.3917 26.9511L44.029 39.0379H31.3016L39.3074 30.075ZM39.3074 51.9277L31.3016 42.9651H44.029L50.3917 55.0515L39.3074 51.9277ZM53.4936 53.0868L47.1287 41.0025L53.4936 28.9135L56.5672 41.0025L53.4936 53.0868Z" fill="white"/>
<defs>
<filter id="filter0_d_1_11" x="0" y="0" width="88" height="87" filterUnits="userSpaceOnUse" color-interpolation-filters="sRGB">
<feFlood flood-opacity="0" result="BackgroundImageFix"/>
<feColorMatrix in="SourceAlpha" type="matrix" values="0 0 0 0 0 0 0 0 0 0 0 0 0 0 0 0 0 0 127 0" result="hardAlpha"/>
<feOffset dy="4"/>
<feGaussianBlur stdDeviation="6"/>
<feColorMatrix type="matrix" values="0 0 0 0 0.161778 0 0 0 0 0.0938889 0 0 0 0 0.433333 0 0 0 0.2 0"/>
<feBlend mode="normal" in2="BackgroundImageFix" result="effect1_dropShadow_1_11"/>
<feBlend mode="normal" in="SourceGraphic" in2="effect1_dropShadow_1_11" result="shape"/>
</filter>
</defs>
</svg>
