<svg width="535" height="409" viewBox="0 0 535 409" fill="none" xmlns="http://www.w3.org/2000/svg">
<path opacity="0.04" d="M201.456 351.865C293.017 373.365 443.374 344.008 494.967 294.094C546.559 244.18 495.373 188.126 459.534 167.484C448.382 161.1 435.809 156.517 426.843 147.631C407.268 128.169 401.146 96.4402 376.433 82.9697C355.058 71.3023 329.116 83.1523 305.215 76.5639C294.782 73.7506 277.932 61.074 260.212 58.7815C221.021 53.7114 124.631 89.4507 112.734 123.452C100.836 157.453 76.0769 322.423 201.456 351.865Z" fill="#276ED8"/>
<path opacity="0.2" d="M356.75 196.691L369 194.387V183.405L356.75 181.293C355.809 176.781 354.023 172.557 351.566 168.813L358.593 158.502L350.817 150.726L340.66 157.907C336.916 155.449 332.711 153.683 328.18 152.742L325.876 140.492H314.893L312.781 152.742C308.269 153.683 304.045 155.468 300.301 157.926L290.009 150.899L282.233 158.675L289.414 168.832C286.957 172.576 285.19 176.8 284.249 181.312L272 183.616V194.599L284.249 196.711C285.19 201.242 286.976 205.447 289.433 209.191L282.406 219.482L290.182 227.258L300.358 220.077C304.103 222.535 308.327 224.321 312.839 225.242L315.143 237.492H326.125L328.237 225.242C332.769 224.302 336.973 222.516 340.717 220.058L351.009 227.086L358.785 219.309L351.604 209.152C354.043 205.428 355.809 201.223 356.75 196.691ZM320.5 211.745C307.943 211.745 297.766 201.549 297.766 189.011C297.766 176.474 307.943 166.278 320.5 166.278C333.057 166.278 343.233 176.454 343.233 189.011C343.233 201.568 333.057 211.745 320.5 211.745Z" fill="#84B5FF"/>
<path d="M81.5596 148.812V251.282C81.5596 256.382 85.6996 260.522 90.7996 260.522H228.6C233.7 260.522 237.84 256.382 237.84 251.282V148.812C237.84 143.712 233.7 139.572 228.6 139.572H90.7896C85.6896 139.582 81.5596 143.712 81.5596 148.812ZM228.73 255.782H165.2L90.9996 255.492C89.1096 255.492 87.2496 254.252 87.2496 252.362V147.732C87.2496 145.842 88.7796 144.312 90.6696 144.312H228.73C230.62 144.312 232.15 145.842 232.15 147.732V252.362C232.15 254.252 230.62 255.782 228.73 255.782Z" fill="#66D6A0"/>
<path d="M370.91 258.492C359.36 258.492 350 267.852 350 279.402C350 290.952 359.36 300.312 370.91 300.312C382.46 300.312 391.82 290.952 391.82 279.402C391.82 267.852 382.46 258.492 370.91 258.492ZM370.91 295.102C362.23 295.102 355.2 288.072 355.2 279.392C355.2 270.712 362.23 263.682 370.91 263.682C379.59 263.682 386.62 270.712 386.62 279.392C386.62 288.072 379.59 295.102 370.91 295.102Z" fill="#66D6A0"/>
<path d="M325.67 197.302V330.292C325.67 333.712 322.9 336.482 319.48 336.482H116.68C113.26 336.482 110.49 333.712 110.49 330.292V197.302C110.49 189.412 116.89 183.002 124.79 183.002H311.37C319.27 183.002 325.67 189.412 325.67 197.302Z" fill="white" stroke="#84B5FF" stroke-miterlimit="10"/>
<path d="M325.67 197.302V197.902H110.49V197.302C110.49 189.412 116.89 183.002 124.79 183.002H311.37C319.27 183.002 325.67 189.412 325.67 197.302Z" fill="#84B5FF"/>
<path opacity="0.1" d="M325.67 307.832V330.292C325.67 333.712 322.9 336.482 319.48 336.482H116.68C113.26 336.482 110.49 333.712 110.49 330.292V307.832H325.67Z" fill="#84B5FF"/>
<path d="M292.989 191.142C292.989 192.172 292.159 193.002 291.129 193.002C290.099 193.002 289.269 192.172 289.269 191.142C289.269 190.112 290.099 189.282 291.129 189.282C292.149 189.282 292.989 190.112 292.989 191.142Z" fill="#84B5FF"/>
<path d="M303.17 191.142C303.17 192.172 302.34 193.002 301.31 193.002C300.28 193.002 299.45 192.172 299.45 191.142C299.45 190.112 300.28 189.282 301.31 189.282C302.33 189.282 303.17 190.112 303.17 191.142Z" fill="#84B5FF"/>
<path d="M312.9 191.142C312.9 192.172 312.07 193.002 311.04 193.002C310.01 193.002 309.18 192.172 309.18 191.142C309.18 190.112 310.01 189.282 311.04 189.282C312.07 189.282 312.9 190.112 312.9 191.142Z" fill="#84B5FF"/>
<path opacity="0.1" d="M326 197.747V330.321C326 333.731 323.232 336.492 319.815 336.492H117.184C113.767 336.492 111 333.731 111 330.321V197.747C111 189.882 117.394 183.492 125.288 183.492H311.712C319.605 183.492 326 189.882 326 197.747Z" stroke="#276ED8" stroke-miterlimit="10"/>
<g filter="url(#filter0_d_40_118)">
<path d="M134.918 341.08L143 339.56V332.313L134.918 330.92C134.297 327.943 133.119 325.156 131.497 322.686L136.134 315.883L131.003 310.752L124.302 315.49C121.831 313.869 119.057 312.703 116.067 312.082L114.547 304H107.301L105.907 312.082C102.93 312.703 100.143 313.881 97.673 315.503L90.8828 310.866L85.7522 315.997L90.4901 322.698C88.8686 325.169 87.7031 327.956 87.0823 330.933L79 332.453V339.699L87.0823 341.093C87.7031 344.082 88.8812 346.857 90.5028 349.327L85.8662 356.117L90.9968 361.248L97.711 356.51C100.181 358.131 102.968 359.31 105.945 359.918L107.466 368H114.712L116.105 359.918C119.095 359.297 121.869 358.119 124.34 356.497L131.13 361.134L136.26 356.003L131.523 349.302C133.131 346.844 134.297 344.07 134.918 341.08ZM111 351.012C102.715 351.012 96.0008 344.285 96.0008 336.013C96.0008 327.74 102.715 321.013 111 321.013C119.285 321.013 125.999 327.728 125.999 336.013C125.999 344.298 119.285 351.012 111 351.012Z" fill="#84B5FF"/>
</g>
<g filter="url(#filter1_d_40_118)">
<path d="M47.687 280.322L53.5437 282.374L56.2811 277.649L51.5225 273.688C52.2387 271.508 52.5252 269.233 52.3978 267.021L58 264.333L56.5835 259.051L50.4244 259.623C49.4217 257.635 48.0371 255.821 46.3342 254.294L48.3873 248.439L43.6605 245.702L39.6976 250.459C37.5172 249.743 35.2414 249.457 33.0292 249.584L30.3395 244L25.0557 245.416L25.6287 251.589C23.6393 252.591 21.8249 253.975 20.2971 255.678L14.4403 253.625L11.7029 258.351L16.4615 262.312C15.7454 264.508 15.4589 266.751 15.5862 268.978L10 271.667L11.4164 276.949L17.5915 276.376C18.5941 278.365 19.9629 280.179 21.6817 281.706L19.6286 287.561L24.3554 290.298L28.3183 285.541C30.5146 286.256 32.7586 286.543 34.9868 286.416L37.6764 292L42.9602 290.584L42.3873 284.411C44.3448 283.425 46.1591 282.056 47.687 280.322ZM28.3183 277.792C22.9072 274.674 21.061 267.753 24.1804 262.344C27.2997 256.935 34.2228 255.089 39.6339 258.207C45.0451 261.326 46.8912 268.247 43.7719 273.656C40.6525 279.065 33.7295 280.911 28.3183 277.792Z" fill="#276ED8"/>
</g>
<rect x="109" y="255.492" width="21" height="5" fill="#66D6A0"/>
<g filter="url(#filter2_d_40_118)">
<rect x="203" y="91" width="65.6797" height="64.5473" rx="6" fill="#276ED8"/>
</g>
<path d="M250.253 117.875C249.181 113.021 244.698 109.5 239.508 109.5C237.447 109.5 235.429 110.054 233.675 111.115C232.927 111.567 232.24 112.103 231.628 112.711C231.045 112.58 230.445 112.513 229.84 112.513C227.773 112.513 225.793 113.279 224.289 114.696C223.432 115.503 222.777 116.478 222.367 117.555C221.332 118.045 220.395 118.736 219.621 119.599L250.253 117.875ZM250.253 117.875C252.669 119.26 254.316 121.743 254.486 124.615L251.99 124.762L254.486 124.615C254.782 129.644 250.59 133.5 245.721 133.5H226.186C221.508 133.5 217.5 129.844 217.5 125.1C217.5 123.066 218.263 121.114 219.621 119.599L250.253 117.875Z" stroke="white" stroke-width="5"/>
<g filter="url(#filter3_d_40_118)">
<rect x="124" y="224" width="138" height="61.64" rx="6" fill="#06B25F"/>
</g>
<path d="M171.397 266.739L164.34 254.802L171.397 242.864L174.798 254.802L171.397 266.739ZM155.692 265.574L146.826 256.73H160.938L167.995 268.668L155.692 265.574ZM155.692 243.993L167.959 240.899L160.903 252.836H146.79L155.692 243.993ZM173.713 235.04L157.682 239.225L155.293 243.338L150.481 243.301L138.72 254.802L150.481 266.302L155.293 266.266L157.682 270.378L173.713 274.6L178.019 258.914L175.594 254.838L178.019 250.762L173.713 235.04ZM210.116 246.65C207.981 246.65 206.534 247.559 205.448 249.233H205.376V247.086H201.613V262.881H205.448V253.928C205.448 251.781 206.787 250.289 208.633 250.289C210.37 250.289 211.672 251.344 211.672 253.201V262.918H215.508V252.582C215.544 249.124 213.373 246.65 210.116 246.65V246.65ZM195.786 256.221C195.786 258.332 194.592 259.788 192.638 259.788C190.865 259.788 189.743 258.769 189.743 256.913V247.086H185.907V257.64C185.907 261.098 187.861 263.354 191.372 263.354C193.579 263.354 194.809 262.517 195.859 261.062H195.967V262.918H199.658V247.086H195.823V256.221H195.786ZM217.571 247.086H221.406V262.881H217.571V247.086ZM217.571 242.173H221.406V245.34H217.571V242.173ZM243.155 247.086L240.875 254.219C240.368 255.675 239.97 257.677 239.97 257.677H239.862C239.862 257.677 239.355 255.675 238.849 254.219L236.279 247.086H232.154L236.388 258.332C237.292 260.734 237.582 261.753 237.582 262.626C237.582 263.936 236.895 264.774 235.266 264.774H233.782V268.085H236.243C239.427 268.085 240.549 266.812 241.743 263.318L247.28 247.123H243.155V247.086ZM228.571 258.259V249.889H231.032V247.123H228.571V242.173H224.736V247.086H222.565V249.852H224.736V259.132C224.736 262.117 226.979 262.918 229.006 262.918C230.67 262.918 231.105 262.845 231.105 262.845V259.788H230.127C229.223 259.824 228.571 259.424 228.571 258.259Z" fill="white"/>
<defs>
<filter id="filter0_d_40_118" x="69" y="298" width="84" height="84" filterUnits="userSpaceOnUse" color-interpolation-filters="sRGB">
<feFlood flood-opacity="0" result="BackgroundImageFix"/>
<feColorMatrix in="SourceAlpha" type="matrix" values="0 0 0 0 0 0 0 0 0 0 0 0 0 0 0 0 0 0 127 0" result="hardAlpha"/>
<feOffset dy="4"/>
<feGaussianBlur stdDeviation="5"/>
<feColorMatrix type="matrix" values="0 0 0 0 0.0885677 0 0 0 0 0.0395834 0 0 0 0 0.395833 0 0 0 0.25 0"/>
<feBlend mode="normal" in2="BackgroundImageFix" result="effect1_dropShadow_40_118"/>
<feBlend mode="normal" in="SourceGraphic" in2="effect1_dropShadow_40_118" result="shape"/>
</filter>
<filter id="filter1_d_40_118" x="0" y="238" width="68" height="68" filterUnits="userSpaceOnUse" color-interpolation-filters="sRGB">
<feFlood flood-opacity="0" result="BackgroundImageFix"/>
<feColorMatrix in="SourceAlpha" type="matrix" values="0 0 0 0 0 0 0 0 0 0 0 0 0 0 0 0 0 0 127 0" result="hardAlpha"/>
<feOffset dy="4"/>
<feGaussianBlur stdDeviation="5"/>
<feColorMatrix type="matrix" values="0 0 0 0 0.0885677 0 0 0 0 0.0395834 0 0 0 0 0.395833 0 0 0 0.25 0"/>
<feBlend mode="normal" in2="BackgroundImageFix" result="effect1_dropShadow_40_118"/>
<feBlend mode="normal" in="SourceGraphic" in2="effect1_dropShadow_40_118" result="shape"/>
</filter>
<filter id="filter2_d_40_118" x="197" y="85" width="87.6797" height="86.5474" filterUnits="userSpaceOnUse" color-interpolation-filters="sRGB">
<feFlood flood-opacity="0" result="BackgroundImageFix"/>
<feColorMatrix in="SourceAlpha" type="matrix" values="0 0 0 0 0 0 0 0 0 0 0 0 0 0 0 0 0 0 127 0" result="hardAlpha"/>
<feMorphology radius="3" operator="dilate" in="SourceAlpha" result="effect1_dropShadow_40_118"/>
<feOffset dx="5" dy="5"/>
<feGaussianBlur stdDeviation="4"/>
<feColorMatrix type="matrix" values="0 0 0 0 0 0 0 0 0 0 0 0 0 0 0 0 0 0 0.2 0"/>
<feBlend mode="normal" in2="BackgroundImageFix" result="effect1_dropShadow_40_118"/>
<feBlend mode="normal" in="SourceGraphic" in2="effect1_dropShadow_40_118" result="shape"/>
</filter>
<filter id="filter3_d_40_118" x="120" y="220" width="152" height="75.64" filterUnits="userSpaceOnUse" color-interpolation-filters="sRGB">
<feFlood flood-opacity="0" result="BackgroundImageFix"/>
<feColorMatrix in="SourceAlpha" type="matrix" values="0 0 0 0 0 0 0 0 0 0 0 0 0 0 0 0 0 0 127 0" result="hardAlpha"/>
<feMorphology radius="1" operator="dilate" in="SourceAlpha" result="effect1_dropShadow_40_118"/>
<feOffset dx="3" dy="3"/>
<feGaussianBlur stdDeviation="3"/>
<feColorMatrix type="matrix" values="0 0 0 0 0 0 0 0 0 0 0 0 0 0 0 0 0 0 0.2 0"/>
<feBlend mode="normal" in2="BackgroundImageFix" result="effect1_dropShadow_40_118"/>
<feBlend mode="normal" in="SourceGraphic" in2="effect1_dropShadow_40_118" result="shape"/>
</filter>
</defs>
</svg>
