<svg width="40" height="40" viewBox="0 0 40 40" fill="none" xmlns="http://www.w3.org/2000/svg">
<path d="M20.0009 0H19.9909C8.96568 0 0 8.96817 0 19.9959C0 24.37 1.40971 28.4242 3.80673 31.716L1.31473 39.1445L9.00067 36.6875C12.1625 38.7821 15.9343 39.9919 20.0009 39.9919C31.0262 39.9919 39.9919 31.0212 39.9919 19.9959C39.9919 8.97067 31.0262 0 20.0009 0ZM31.6361 28.2368C31.1537 29.599 29.239 30.7287 27.7119 31.0587C26.6671 31.2811 25.3023 31.4586 20.7083 29.554C14.832 27.1195 11.0478 21.1482 10.7528 20.7608C10.4704 20.3734 8.37829 17.5989 8.37829 14.7295C8.37829 11.8601 9.8355 10.4629 10.4229 9.86299C10.9053 9.37059 11.7026 9.14564 12.4675 9.14564C12.7149 9.14564 12.9374 9.15814 13.1373 9.16813C13.7247 9.19313 14.0196 9.22812 14.4071 10.1554C14.8895 11.3177 16.0642 14.1871 16.2042 14.4821C16.3467 14.777 16.4891 15.1769 16.2892 15.5643C16.1017 15.9643 15.9368 16.1417 15.6418 16.4816C15.3469 16.8216 15.0669 17.0815 14.772 17.4464C14.502 17.7639 14.1971 18.1038 14.537 18.6912C14.877 19.2661 16.0517 21.1832 17.7814 22.7229C20.0134 24.71 21.8231 25.3448 22.4704 25.6148C22.9528 25.8147 23.5277 25.7673 23.8801 25.3923C24.3275 24.9099 24.8799 24.1101 25.4423 23.3228C25.8422 22.7579 26.3471 22.6879 26.877 22.8878C27.4169 23.0753 30.2738 24.4875 30.8612 24.78C31.4486 25.0749 31.836 25.2149 31.9785 25.4623C32.1185 25.7098 32.1185 26.872 31.6361 28.2368Z" fill="#6BB548"/>
</svg>
